<mxfile host="app.diagrams.net" agent="Mozilla/5.0 (Windows NT 10.0; Win64; x64) AppleWebKit/537.36 (KHTML, like Gecko) Chrome/132.0.0.0 Safari/537.36 OPR/117.0.0.0 (Edition std-1)" version="26.2.13">
  <diagram name="Page-1" id="hE1De7-QvZgbe8gm9dJ3">
    <mxGraphModel dx="1180" dy="675" grid="1" gridSize="10" guides="1" tooltips="1" connect="1" arrows="1" fold="1" page="1" pageScale="1" pageWidth="827" pageHeight="1169" math="0" shadow="0">
      <root>
        <mxCell id="0" />
        <mxCell id="1" parent="0" />
        <mxCell id="GoJcISw9qc416fXIIpP5-1" value="&lt;span style=&quot;font-weight: normal;&quot;&gt;&lt;font style=&quot;font-size: 14px;&quot;&gt;User&lt;/font&gt;&lt;/span&gt;" style="swimlane;horizontal=0;whiteSpace=wrap;html=1;startSize=23;" vertex="1" parent="1">
          <mxGeometry x="360" y="380" width="1040" height="80" as="geometry" />
        </mxCell>
        <mxCell id="GoJcISw9qc416fXIIpP5-2" value="&lt;font style=&quot;font-size: 14px; font-weight: normal;&quot;&gt;My Waze&lt;/font&gt;" style="swimlane;horizontal=0;whiteSpace=wrap;html=1;startSize=23;" vertex="1" parent="1">
          <mxGeometry x="360" y="530" width="1040" height="390" as="geometry" />
        </mxCell>
        <mxCell id="GoJcISw9qc416fXIIpP5-3" value="" style="shape=mxgraph.bpmn.shape;html=1;verticalLabelPosition=bottom;labelBackgroundColor=#ffffff;verticalAlign=top;perimeter=ellipsePerimeter;outline=end;symbol=general;" vertex="1" parent="GoJcISw9qc416fXIIpP5-2">
          <mxGeometry x="980" y="85" width="50" height="50" as="geometry" />
        </mxCell>
        <mxCell id="GoJcISw9qc416fXIIpP5-12" value="" style="edgeStyle=orthogonalEdgeStyle;rounded=0;html=1;jettySize=auto;orthogonalLoop=1;exitX=1;exitY=0.5;exitDx=0;exitDy=0;exitPerimeter=0;" edge="1" parent="GoJcISw9qc416fXIIpP5-2" source="GoJcISw9qc416fXIIpP5-13">
          <mxGeometry relative="1" as="geometry">
            <mxPoint x="690" y="400" as="sourcePoint" />
            <mxPoint x="400" y="110" as="targetPoint" />
          </mxGeometry>
        </mxCell>
        <mxCell id="GoJcISw9qc416fXIIpP5-13" value="Get current user preferences and temporarily apply changes" style="points=[[0.25,0,0],[0.5,0,0],[0.75,0,0],[1,0.25,0],[1,0.5,0],[1,0.75,0],[0.75,1,0],[0.5,1,0],[0.25,1,0],[0,0.75,0],[0,0.5,0],[0,0.25,0]];shape=mxgraph.bpmn.task2;whiteSpace=wrap;rectStyle=rounded;size=10;html=1;container=1;expand=0;collapsible=0;taskMarker=service;" vertex="1" parent="GoJcISw9qc416fXIIpP5-2">
          <mxGeometry x="220" y="70" width="120" height="80" as="geometry" />
        </mxCell>
        <mxCell id="GoJcISw9qc416fXIIpP5-15" value="User Data" style="shape=datastore;html=1;labelPosition=center;verticalLabelPosition=bottom;align=center;verticalAlign=top;" vertex="1" parent="GoJcISw9qc416fXIIpP5-2">
          <mxGeometry x="255" y="190" width="50" height="55" as="geometry" />
        </mxCell>
        <mxCell id="GoJcISw9qc416fXIIpP5-17" value="Receive user changes" style="shape=mxgraph.bpmn.shape;html=1;verticalLabelPosition=bottom;labelBackgroundColor=#ffffff;verticalAlign=top;perimeter=ellipsePerimeter;outline=standard;symbol=general;" vertex="1" parent="GoJcISw9qc416fXIIpP5-2">
          <mxGeometry x="80" y="85" width="50" height="50" as="geometry" />
        </mxCell>
        <mxCell id="GoJcISw9qc416fXIIpP5-18" value="" style="shape=message;whiteSpace=wrap;html=1;" vertex="1" parent="GoJcISw9qc416fXIIpP5-2">
          <mxGeometry x="85" y="95" width="40" height="30" as="geometry" />
        </mxCell>
        <mxCell id="GoJcISw9qc416fXIIpP5-19" value="" style="shape=flexArrow;endArrow=classic;html=1;rounded=0;width=5.76;endSize=2.7312;endWidth=6.9184;" edge="1" parent="GoJcISw9qc416fXIIpP5-2">
          <mxGeometry width="50" height="50" relative="1" as="geometry">
            <mxPoint x="104.88999999999999" y="75" as="sourcePoint" />
            <mxPoint x="104.88999999999999" y="85" as="targetPoint" />
          </mxGeometry>
        </mxCell>
        <mxCell id="GoJcISw9qc416fXIIpP5-20" value="" style="endArrow=none;dashed=1;html=1;dashPattern=1 3;strokeWidth=2;rounded=0;exitX=0.5;exitY=0;exitDx=0;exitDy=0;" edge="1" parent="GoJcISw9qc416fXIIpP5-2" source="GoJcISw9qc416fXIIpP5-17" target="GoJcISw9qc416fXIIpP5-22">
          <mxGeometry width="50" height="50" relative="1" as="geometry">
            <mxPoint x="320" y="160" as="sourcePoint" />
            <mxPoint x="135" y="-70" as="targetPoint" />
          </mxGeometry>
        </mxCell>
        <mxCell id="GoJcISw9qc416fXIIpP5-21" value="Map personalization" style="edgeLabel;html=1;align=center;verticalAlign=middle;resizable=0;points=[];" vertex="1" connectable="0" parent="GoJcISw9qc416fXIIpP5-20">
          <mxGeometry x="0.2117" y="-3" relative="1" as="geometry">
            <mxPoint as="offset" />
          </mxGeometry>
        </mxCell>
        <mxCell id="GoJcISw9qc416fXIIpP5-22" value="" style="ellipse;whiteSpace=wrap;html=1;" vertex="1" parent="GoJcISw9qc416fXIIpP5-2">
          <mxGeometry x="95" y="-70" width="20" height="20" as="geometry" />
        </mxCell>
        <mxCell id="GoJcISw9qc416fXIIpP5-33" style="edgeStyle=orthogonalEdgeStyle;rounded=0;orthogonalLoop=1;jettySize=auto;html=1;exitX=1;exitY=0.5;exitDx=0;exitDy=0;entryX=0;entryY=0.5;entryDx=0;entryDy=0;entryPerimeter=0;" edge="1" parent="GoJcISw9qc416fXIIpP5-2" source="GoJcISw9qc416fXIIpP5-17" target="GoJcISw9qc416fXIIpP5-13">
          <mxGeometry relative="1" as="geometry">
            <mxPoint x="200" y="110" as="targetPoint" />
          </mxGeometry>
        </mxCell>
        <mxCell id="GoJcISw9qc416fXIIpP5-66" style="edgeStyle=orthogonalEdgeStyle;rounded=0;orthogonalLoop=1;jettySize=auto;html=1;dashed=1;" edge="1" parent="GoJcISw9qc416fXIIpP5-2" source="GoJcISw9qc416fXIIpP5-10">
          <mxGeometry relative="1" as="geometry">
            <mxPoint x="460" y="-70" as="targetPoint" />
          </mxGeometry>
        </mxCell>
        <mxCell id="GoJcISw9qc416fXIIpP5-10" value="Display new User&amp;nbsp;&lt;div&gt;Map preferences&lt;/div&gt;" style="points=[[0.25,0,0],[0.5,0,0],[0.75,0,0],[1,0.25,0],[1,0.5,0],[1,0.75,0],[0.75,1,0],[0.5,1,0],[0.25,1,0],[0,0.75,0],[0,0.5,0],[0,0.25,0]];shape=mxgraph.bpmn.task2;whiteSpace=wrap;rectStyle=rounded;size=10;html=1;container=1;expand=0;collapsible=0;taskMarker=service;" vertex="1" parent="GoJcISw9qc416fXIIpP5-2">
          <mxGeometry x="400" y="70" width="120" height="80" as="geometry" />
        </mxCell>
        <mxCell id="GoJcISw9qc416fXIIpP5-38" value="User Data" style="shape=datastore;html=1;labelPosition=center;verticalLabelPosition=bottom;align=center;verticalAlign=top;" vertex="1" parent="GoJcISw9qc416fXIIpP5-2">
          <mxGeometry x="660" y="310" width="50" height="55" as="geometry" />
        </mxCell>
        <mxCell id="GoJcISw9qc416fXIIpP5-40" style="edgeStyle=orthogonalEdgeStyle;rounded=0;orthogonalLoop=1;jettySize=auto;html=1;entryX=0.5;entryY=1;entryDx=0;entryDy=0;entryPerimeter=0;dashed=1;" edge="1" parent="GoJcISw9qc416fXIIpP5-2" source="GoJcISw9qc416fXIIpP5-15" target="GoJcISw9qc416fXIIpP5-13">
          <mxGeometry relative="1" as="geometry" />
        </mxCell>
        <mxCell id="GoJcISw9qc416fXIIpP5-54" style="edgeStyle=orthogonalEdgeStyle;rounded=0;orthogonalLoop=1;jettySize=auto;html=1;entryX=0;entryY=0.5;entryDx=0;entryDy=0;entryPerimeter=0;" edge="1" parent="GoJcISw9qc416fXIIpP5-2" source="GoJcISw9qc416fXIIpP5-51" target="GoJcISw9qc416fXIIpP5-64">
          <mxGeometry relative="1" as="geometry">
            <mxPoint x="800" y="110" as="targetPoint" />
          </mxGeometry>
        </mxCell>
        <mxCell id="GoJcISw9qc416fXIIpP5-55" value="Discard changes" style="edgeLabel;html=1;align=center;verticalAlign=middle;resizable=0;points=[];" vertex="1" connectable="0" parent="GoJcISw9qc416fXIIpP5-54">
          <mxGeometry x="-0.075" y="5" relative="1" as="geometry">
            <mxPoint as="offset" />
          </mxGeometry>
        </mxCell>
        <mxCell id="GoJcISw9qc416fXIIpP5-57" style="edgeStyle=orthogonalEdgeStyle;rounded=0;orthogonalLoop=1;jettySize=auto;html=1;" edge="1" parent="GoJcISw9qc416fXIIpP5-2" source="GoJcISw9qc416fXIIpP5-51">
          <mxGeometry relative="1" as="geometry">
            <mxPoint x="685" y="190" as="targetPoint" />
          </mxGeometry>
        </mxCell>
        <mxCell id="GoJcISw9qc416fXIIpP5-51" value="Comfirm changes" style="points=[[0.25,0.25,0],[0.5,0,0],[0.75,0.25,0],[1,0.5,0],[0.75,0.75,0],[0.5,1,0],[0.25,0.75,0],[0,0.5,0]];shape=mxgraph.bpmn.gateway2;html=1;verticalLabelPosition=bottom;labelBackgroundColor=#ffffff;verticalAlign=top;align=center;perimeter=rhombusPerimeter;outlineConnect=0;outline=none;symbol=none;gwType=exclusive;" vertex="1" parent="GoJcISw9qc416fXIIpP5-2">
          <mxGeometry x="660" y="85" width="50" height="50" as="geometry" />
        </mxCell>
        <mxCell id="GoJcISw9qc416fXIIpP5-59" style="edgeStyle=orthogonalEdgeStyle;rounded=0;orthogonalLoop=1;jettySize=auto;html=1;entryX=0;entryY=0.5;entryDx=0;entryDy=0;" edge="1" parent="GoJcISw9qc416fXIIpP5-2" source="GoJcISw9qc416fXIIpP5-58" target="GoJcISw9qc416fXIIpP5-60">
          <mxGeometry relative="1" as="geometry">
            <mxPoint x="850" y="230" as="targetPoint" />
          </mxGeometry>
        </mxCell>
        <mxCell id="GoJcISw9qc416fXIIpP5-61" style="edgeStyle=orthogonalEdgeStyle;rounded=0;orthogonalLoop=1;jettySize=auto;html=1;entryX=0.5;entryY=0;entryDx=0;entryDy=0;dashed=1;" edge="1" parent="GoJcISw9qc416fXIIpP5-2" source="GoJcISw9qc416fXIIpP5-58" target="GoJcISw9qc416fXIIpP5-38">
          <mxGeometry relative="1" as="geometry" />
        </mxCell>
        <mxCell id="GoJcISw9qc416fXIIpP5-58" value="Save changes" style="points=[[0.25,0,0],[0.5,0,0],[0.75,0,0],[1,0.25,0],[1,0.5,0],[1,0.75,0],[0.75,1,0],[0.5,1,0],[0.25,1,0],[0,0.75,0],[0,0.5,0],[0,0.25,0]];shape=mxgraph.bpmn.task2;whiteSpace=wrap;rectStyle=rounded;size=10;html=1;container=1;expand=0;collapsible=0;taskMarker=service;" vertex="1" parent="GoJcISw9qc416fXIIpP5-2">
          <mxGeometry x="625" y="190" width="120" height="80" as="geometry" />
        </mxCell>
        <mxCell id="GoJcISw9qc416fXIIpP5-60" value="" style="shape=mxgraph.bpmn.shape;html=1;verticalLabelPosition=bottom;labelBackgroundColor=#ffffff;verticalAlign=top;perimeter=ellipsePerimeter;outline=end;symbol=general;" vertex="1" parent="GoJcISw9qc416fXIIpP5-2">
          <mxGeometry x="771" y="205" width="50" height="50" as="geometry" />
        </mxCell>
        <mxCell id="GoJcISw9qc416fXIIpP5-62" value="User decision" style="text;html=1;align=center;verticalAlign=middle;resizable=0;points=[];autosize=1;strokeColor=none;fillColor=none;" vertex="1" parent="GoJcISw9qc416fXIIpP5-2">
          <mxGeometry x="635" y="55" width="100" height="30" as="geometry" />
        </mxCell>
        <mxCell id="GoJcISw9qc416fXIIpP5-65" style="edgeStyle=orthogonalEdgeStyle;rounded=0;orthogonalLoop=1;jettySize=auto;html=1;dashed=1;" edge="1" parent="GoJcISw9qc416fXIIpP5-2" source="GoJcISw9qc416fXIIpP5-64">
          <mxGeometry relative="1" as="geometry">
            <mxPoint x="900" y="-70" as="targetPoint" />
          </mxGeometry>
        </mxCell>
        <mxCell id="GoJcISw9qc416fXIIpP5-67" style="edgeStyle=orthogonalEdgeStyle;rounded=0;orthogonalLoop=1;jettySize=auto;html=1;entryX=0;entryY=0.5;entryDx=0;entryDy=0;" edge="1" parent="GoJcISw9qc416fXIIpP5-2" source="GoJcISw9qc416fXIIpP5-64" target="GoJcISw9qc416fXIIpP5-3">
          <mxGeometry relative="1" as="geometry" />
        </mxCell>
        <mxCell id="GoJcISw9qc416fXIIpP5-64" value="Display old User&amp;nbsp;&lt;div&gt;Map preferences&lt;/div&gt;" style="points=[[0.25,0,0],[0.5,0,0],[0.75,0,0],[1,0.25,0],[1,0.5,0],[1,0.75,0],[0.75,1,0],[0.5,1,0],[0.25,1,0],[0,0.75,0],[0,0.5,0],[0,0.25,0]];shape=mxgraph.bpmn.task2;whiteSpace=wrap;rectStyle=rounded;size=10;html=1;container=1;expand=0;collapsible=0;taskMarker=service;" vertex="1" parent="GoJcISw9qc416fXIIpP5-2">
          <mxGeometry x="840" y="70" width="120" height="80" as="geometry" />
        </mxCell>
        <mxCell id="GoJcISw9qc416fXIIpP5-68" value="User Data" style="shape=datastore;html=1;labelPosition=center;verticalLabelPosition=bottom;align=center;verticalAlign=top;" vertex="1" parent="GoJcISw9qc416fXIIpP5-2">
          <mxGeometry x="875" y="180" width="50" height="55" as="geometry" />
        </mxCell>
        <mxCell id="GoJcISw9qc416fXIIpP5-69" style="edgeStyle=orthogonalEdgeStyle;rounded=0;orthogonalLoop=1;jettySize=auto;html=1;entryX=0.5;entryY=1;entryDx=0;entryDy=0;entryPerimeter=0;dashed=1;" edge="1" parent="GoJcISw9qc416fXIIpP5-2" source="GoJcISw9qc416fXIIpP5-68" target="GoJcISw9qc416fXIIpP5-64">
          <mxGeometry relative="1" as="geometry" />
        </mxCell>
        <mxCell id="GoJcISw9qc416fXIIpP5-50" style="edgeStyle=orthogonalEdgeStyle;rounded=0;orthogonalLoop=1;jettySize=auto;html=1;entryX=0;entryY=0.5;entryDx=0;entryDy=0;entryPerimeter=0;" edge="1" parent="1" source="GoJcISw9qc416fXIIpP5-41" target="GoJcISw9qc416fXIIpP5-51">
          <mxGeometry relative="1" as="geometry">
            <mxPoint x="1000" y="640" as="targetPoint" />
          </mxGeometry>
        </mxCell>
        <mxCell id="GoJcISw9qc416fXIIpP5-41" value="" style="shape=mxgraph.bpmn.shape;html=1;verticalLabelPosition=bottom;labelBackgroundColor=#ffffff;verticalAlign=top;perimeter=ellipsePerimeter;outline=standard;symbol=general;" vertex="1" parent="1">
          <mxGeometry x="920" y="615" width="50" height="50" as="geometry" />
        </mxCell>
        <mxCell id="GoJcISw9qc416fXIIpP5-42" value="" style="shape=message;whiteSpace=wrap;html=1;" vertex="1" parent="1">
          <mxGeometry x="925" y="625" width="40" height="30" as="geometry" />
        </mxCell>
        <mxCell id="GoJcISw9qc416fXIIpP5-43" value="" style="shape=flexArrow;endArrow=classic;html=1;rounded=0;width=5.76;endSize=2.7312;endWidth=6.9184;" edge="1" parent="1">
          <mxGeometry width="50" height="50" relative="1" as="geometry">
            <mxPoint x="944.89" y="605" as="sourcePoint" />
            <mxPoint x="944.89" y="615" as="targetPoint" />
          </mxGeometry>
        </mxCell>
        <mxCell id="GoJcISw9qc416fXIIpP5-44" value="" style="endArrow=none;dashed=1;html=1;dashPattern=1 3;strokeWidth=2;rounded=0;exitX=0.5;exitY=0;exitDx=0;exitDy=0;" edge="1" parent="1">
          <mxGeometry width="50" height="50" relative="1" as="geometry">
            <mxPoint x="945" y="615" as="sourcePoint" />
            <mxPoint x="945" y="480" as="targetPoint" />
          </mxGeometry>
        </mxCell>
        <mxCell id="GoJcISw9qc416fXIIpP5-47" value="User comfirmation" style="edgeLabel;html=1;align=center;verticalAlign=middle;resizable=0;points=[];" vertex="1" connectable="0" parent="GoJcISw9qc416fXIIpP5-44">
          <mxGeometry x="0.0815" y="-2" relative="1" as="geometry">
            <mxPoint as="offset" />
          </mxGeometry>
        </mxCell>
        <mxCell id="GoJcISw9qc416fXIIpP5-46" value="" style="ellipse;whiteSpace=wrap;html=1;" vertex="1" parent="1">
          <mxGeometry x="935" y="460" width="20" height="20" as="geometry" />
        </mxCell>
        <mxCell id="GoJcISw9qc416fXIIpP5-49" style="edgeStyle=orthogonalEdgeStyle;rounded=0;orthogonalLoop=1;jettySize=auto;html=1;entryX=0;entryY=0.5;entryDx=0;entryDy=0;" edge="1" parent="1" source="GoJcISw9qc416fXIIpP5-10" target="GoJcISw9qc416fXIIpP5-41">
          <mxGeometry relative="1" as="geometry" />
        </mxCell>
      </root>
    </mxGraphModel>
  </diagram>
</mxfile>
